<svg width="34" height="34" viewBox="0 0 24 24" fill="none" xmlns="http://www.w3.org/2000/svg">
<path fill-rule="evenodd" clip-rule="evenodd" d="M1.5 12C1.5 14.7848 2.60625 17.4555 4.57538 19.4246C6.54451 21.3938 9.21523 22.5 12 22.5C14.7848 22.5 17.4555 21.3938 19.4246 19.4246C21.3938 17.4555 22.5 14.7848 22.5 12C22.5 9.21523 21.3938 6.54451 19.4246 4.57538C17.4555 2.60625 14.7848 1.5 12 1.5C9.21523 1.5 6.54451 2.60625 4.57538 4.57538C2.60625 6.54451 1.5 9.21523 1.5 12ZM20.7 12C20.7 14.3074 19.7834 16.5203 18.1518 18.1518C16.5203 19.7834 14.3074 20.7 12 20.7C9.69262 20.7 7.47974 19.7834 5.84817 18.1518C4.2166 16.5203 3.3 14.3074 3.3 12C3.3 9.69262 4.2166 7.47974 5.84817 5.84817C7.47974 4.2166 9.69262 3.3 12 3.3C14.3074 3.3 16.5203 4.2166 18.1518 5.84817C19.7834 7.47974 20.7 9.69262 20.7 12Z" fill="#1D3D5F"/>
<path fill-rule="evenodd" clip-rule="evenodd" d="M7.5 12C7.5 17.4264 9.2892 21.9 12 21.9C14.7108 21.9 16.5 17.4264 16.5 12C16.5 6.5736 14.7108 2.1 12 2.1C9.2892 2.1 7.5 6.5736 7.5 12ZM14.7 12C14.7 16.5144 13.266 20.1 12 20.1C10.734 20.1 9.3 16.5144 9.3 12C9.3 7.4856 10.734 3.9 12 3.9C13.266 3.9 14.7 7.4856 14.7 12Z" fill="#1D3D5F"/>
<path d="M4.32238 6.5604L5.52958 5.226C5.64958 5.334 5.78038 5.442 5.91958 5.5464C7.44478 6.6888 9.87958 7.3944 12.5376 7.3944C14.8068 7.3944 16.92 6.882 18.4548 6.0048C18.8244 5.7936 19.1532 5.5644 19.4376 5.3208L20.6064 6.69C20.2159 7.0212 19.7948 7.31452 19.3488 7.566C17.5296 8.6076 15.108 9.1932 12.5376 9.1932C9.51118 9.1932 6.69958 8.3796 4.83958 6.9864C4.66072 6.85242 4.48814 6.71027 4.32238 6.5604ZM4.32238 17.4588L5.52958 18.7932C5.64958 18.684 5.78038 18.5772 5.91958 18.4728C7.44478 17.3304 9.87958 16.6248 12.5376 16.6248C14.8068 16.6248 16.92 17.1372 18.4548 18.0144C18.8244 18.2256 19.1532 18.4548 19.4376 18.6984L20.6064 17.3292C20.2154 16.9986 19.7944 16.7053 19.3488 16.4532C17.5296 15.4116 15.108 14.826 12.5376 14.826C9.51118 14.826 6.69958 15.6396 4.83958 17.0328C4.66072 17.1668 4.48814 17.3089 4.32238 17.4588ZM2.09998 12.9V11.1H21.9V12.9H2.09998Z" fill="#1D3D5F"/>
</svg>
